<svg width="85" height="30" viewBox="0 0 85 30" fill="none" xmlns="http://www.w3.org/2000/svg">
<g clip-path="url(#clip0_1054_88143)">
<path d="M4.86687 20.9855C5.22435 21.9347 5.71927 22.7463 6.35172 23.4203C6.98417 24.0944 7.73344 24.6103 8.59953 24.968C9.4657 25.3257 10.4074 25.5045 11.4248 25.5045C12.4148 25.5045 13.3427 25.3187 14.2089 24.9473C15.0751 24.5758 15.8312 24.0531 16.4773 23.3791C17.1235 22.705 17.6253 21.9003 17.9828 20.9648C18.3403 20.0294 18.519 18.984 18.519 17.8284V0H22.8497V28.8885H18.5602V26.206C17.5979 27.2239 16.4636 28.008 15.1575 28.5584C13.8513 29.1086 12.4422 29.3837 10.9299 29.3837C9.39005 29.3837 7.95339 29.1154 6.61976 28.5789C5.28623 28.0424 4.13129 27.279 3.15523 26.2885C2.17918 25.298 1.40919 24.1082 0.845551 22.7188C0.28182 21.3294 0 19.7818 0 18.0759V0H4.3307V17.8284C4.3307 18.984 4.50939 20.0362 4.86687 20.9855Z" fill="#B2B2B2"/>
<path d="M30.3141 0V10.5236C31.2765 9.5607 32.3902 8.79729 33.655 8.23323C34.9198 7.66916 36.2947 7.38718 37.7794 7.38718C39.3193 7.38718 40.7627 7.67601 42.1102 8.25378C43.4575 8.83154 44.626 9.61568 45.6159 10.6062C46.6059 11.5967 47.3895 12.7659 47.967 14.114C48.5444 15.4622 48.833 16.8929 48.833 18.4061C48.833 19.9192 48.5444 21.3431 47.967 22.6774C47.3895 24.0118 46.6059 25.1743 45.6159 26.1646C44.626 27.1551 43.4575 27.9392 42.1102 28.517C40.7627 29.0948 39.3192 29.3836 37.7794 29.3836C36.2946 29.3836 34.913 29.1016 33.6344 28.5376C32.3558 27.9736 31.2353 27.2101 30.2729 26.2471V28.8884H26.1484V0H30.3141ZM30.7884 21.2537C31.1596 22.1341 31.6752 22.9045 32.3352 23.5648C32.9951 24.2251 33.765 24.7479 34.6448 25.1331C35.5248 25.5183 36.4734 25.7108 37.4908 25.7108C38.4807 25.7108 39.4155 25.5183 40.2954 25.1331C41.1753 24.7479 41.9382 24.2252 42.5845 23.5648C43.2307 22.9046 43.7462 22.1341 44.1312 21.2537C44.5161 20.3733 44.7086 19.4241 44.7086 18.4061C44.7086 17.3881 44.5161 16.432 44.1312 15.5379C43.7462 14.6437 43.2307 13.8665 42.5845 13.2062C41.9383 12.5459 41.1753 12.03 40.2954 11.6586C39.4154 11.2872 38.4806 11.1014 37.4908 11.1014C36.5009 11.1014 35.566 11.2871 34.6862 11.6586C33.8063 12.0301 33.0364 12.5459 32.3764 13.2062C31.7166 13.8665 31.1941 14.6437 30.8091 15.5379C30.4242 16.432 30.2317 17.3881 30.2317 18.4061C30.2316 19.4241 30.4173 20.3733 30.7884 21.2537Z" fill="#B2B2B2"/>
<path d="M51.1841 14.1545C51.734 12.8339 52.4903 11.6715 53.4526 10.6673C54.4148 9.66308 55.5561 8.87209 56.8759 8.29433C58.1958 7.71657 59.6256 7.42773 61.1654 7.42773C62.6777 7.42773 64.08 7.70287 65.3724 8.25306C66.6647 8.80333 67.7783 9.56683 68.7132 10.5436C69.6481 11.5202 70.3768 12.6758 70.8991 14.0101C71.4216 15.3445 71.6828 16.7959 71.6828 18.3641V19.726H54.5662C54.7038 20.5789 54.9787 21.3699 55.3912 22.0989C55.8037 22.828 56.3191 23.4608 56.9378 23.9973C57.5565 24.5339 58.2576 24.9535 59.0413 25.256C59.825 25.5586 60.6567 25.71 61.5366 25.71C64.0389 25.71 66.0599 24.6782 67.5997 22.6147L70.6105 24.8432C69.5657 26.2464 68.2734 27.347 66.7336 28.1448C65.1937 28.9426 63.4615 29.3416 61.5367 29.3416C59.9694 29.3416 58.5052 29.0664 57.1441 28.5162C55.783 27.966 54.6007 27.1956 53.5971 26.2051C52.5935 25.2145 51.803 24.0522 51.2256 22.7178C50.6481 21.3835 50.3594 19.9321 50.3594 18.3639C50.3592 16.8783 50.6343 15.4751 51.1841 14.1545ZM56.979 12.5243C55.8104 13.501 55.0337 14.801 54.6487 16.4243H67.4759C67.1185 14.801 66.3554 13.501 65.1868 12.5243C64.0182 11.5477 62.6502 11.0593 61.083 11.0593C59.5156 11.0593 58.1477 11.5477 56.979 12.5243Z" fill="#B2B2B2"/>
<path d="M79.4778 12.9996C78.598 13.9625 78.158 15.2693 78.158 16.9202V28.8884H73.9922V7.84097H78.1166V10.441C78.6391 9.58805 79.3197 8.91395 80.1583 8.41874C80.9969 7.92343 81.9937 7.67578 83.1486 7.67578H84.5921V11.5551H82.8598C81.4851 11.5552 80.3577 12.0366 79.4778 12.9996Z" fill="#B2B2B2"/>
</g>
<defs>
<clipPath id="clip0_1054_88143">
<rect width="84.5922" height="29.3837" fill="white"/>
</clipPath>
</defs>
</svg>
